<?xml version="1.0" encoding="UTF-8" standalone="no"?>
<svg
   xmlns:dc="http://purl.org/dc/elements/1.1/"
   xmlns:cc="http://creativecommons.org/ns#"
   xmlns:rdf="http://www.w3.org/1999/02/22-rdf-syntax-ns#"
   xmlns:svg="http://www.w3.org/2000/svg"
   xmlns="http://www.w3.org/2000/svg"
   xmlns:sodipodi="http://sodipodi.sourceforge.net/DTD/sodipodi-0.dtd"
   xmlns:inkscape="http://www.inkscape.org/namespaces/inkscape"
   viewBox="0 0 79.997093 79.997094"
   height="79.997093"
   width="79.997093"
   xml:space="preserve"
   version="1.1"
   id="svg4136"
   inkscape:version="0.91 r13725"
   sodipodi:docname="facebook-logo.svg"><sodipodi:namedview
     pagecolor="#ffffff"
     bordercolor="#666666"
     borderopacity="1"
     objecttolerance="10"
     gridtolerance="10"
     guidetolerance="10"
     inkscape:pageopacity="0"
     inkscape:pageshadow="2"
     inkscape:window-width="1366"
     inkscape:window-height="715"
     id="namedview12"
     showgrid="false"
     inkscape:zoom="2.4551876"
     inkscape:cx="-21.212838"
     inkscape:cy="32.675313"
     inkscape:window-x="-8"
     inkscape:window-y="-8"
     inkscape:window-maximized="1"
     inkscape:current-layer="svg4136"
     fit-margin-top="0"
     fit-margin-left="0"
     fit-margin-right="0"
     fit-margin-bottom="0"
     showguides="false"
     inkscape:snap-to-guides="false"
     inkscape:snap-grids="false"><inkscape:grid
       type="xygrid"
       id="grid4141" /></sodipodi:namedview><metadata
     id="metadata4142"><rdf:RDF><cc:Work
         rdf:about=""><dc:format>image/svg+xml</dc:format><dc:type
           rdf:resource="http://purl.org/dc/dcmitype/StillImage" /><dc:title /></cc:Work></rdf:RDF></metadata><defs
     id="defs4140"><clipPath
       id="clipPath4152"
       clipPathUnits="userSpaceOnUse"><path
         id="path4154"
         d="M 0,0 0,321 175,321 175,0 0,0 Z"
         inkscape:connector-curvature="0" /></clipPath></defs><rect
     style="fill:#ffffff;fill-opacity:0;stroke:#ad7835;stroke-width:1;stroke-miterlimit:4;stroke-dasharray:none;stroke-opacity:1"
     id="rect3339"
     width="78.997093"
     height="78.997093"
     x="0.5"
     y="0.5" /><g
     transform="matrix(0.52917078,0,0,-0.52917078,27.88596,60.34474)"
     id="g4144"
     style="fill:#ad7835;fill-opacity:1"><g
       transform="scale(0.24,0.24)"
       id="g4146"
       style="fill:#ad7835;fill-opacity:1"><g
         id="g4148"
         style="fill:#ad7835;fill-opacity:1"><g
           clip-path="url(#clipPath4152)"
           id="g4150"
           style="fill:#ad7835;fill-opacity:1"><path
             id="path4156"
             style="fill:#ad7835;fill-opacity:1;fill-rule:nonzero;stroke:none"
             d="m 182.46291,320.348 -41.551,0.062 c -46.679601,0 -76.855401,-30.957 -76.855401,-78.855 l 0,-36.364 -41.78516,0 c -3.59375,0 -6.52344,-2.914 -6.52344,-6.523 l 0,-52.688 c 0,-3.597 2.92969,-6.527 6.52344,-6.527 l 41.78516,0 0,-132.92956 c 0,-3.59375 2.9297,-6.52344 6.543,-6.52344 l 54.488401,0 c 3.613,0 6.543,2.92969 6.543,6.52344 l 0,132.92956 48.847,0 c 3.61,0 6.528,2.93 6.528,6.527 l 0.031,52.688 c 0,1.723 -0.703,3.383 -1.922,4.621 -1.222,1.219 -2.879,1.902 -4.621,1.902 l -48.863,0 0,30.825 c 0,14.812 3.535,22.336 22.82,22.336 l 27.996,0.015 c 3.614,0 6.528,2.93 6.528,6.524 l 0,48.91 c 0,3.617 -2.914,6.527 -6.512,6.547 z"
             inkscape:connector-curvature="0" /></g></g></g></g></svg>