<?xml version="1.0" encoding="UTF-8" standalone="no"?>
<svg
   xmlns:dc="http://purl.org/dc/elements/1.1/"
   xmlns:cc="http://creativecommons.org/ns#"
   xmlns:rdf="http://www.w3.org/1999/02/22-rdf-syntax-ns#"
   xmlns:svg="http://www.w3.org/2000/svg"
   xmlns="http://www.w3.org/2000/svg"
   xmlns:sodipodi="http://sodipodi.sourceforge.net/DTD/sodipodi-0.dtd"
   xmlns:inkscape="http://www.inkscape.org/namespaces/inkscape"
   viewBox="0 0 80 79.999999"
   height="80"
   width="80"
   xml:space="preserve"
   version="1.1"
   id="svg4136"
   inkscape:version="0.91 r13725"
   sodipodi:docname="instagram-logo.svg"><sodipodi:namedview
     pagecolor="#ffffff"
     bordercolor="#666666"
     borderopacity="1"
     objecttolerance="10"
     gridtolerance="10"
     guidetolerance="10"
     inkscape:pageopacity="0"
     inkscape:pageshadow="2"
     inkscape:window-width="1366"
     inkscape:window-height="715"
     id="namedview12"
     showgrid="false"
     inkscape:zoom="2.4231889"
     inkscape:cx="31.45094"
     inkscape:cy="65.63695"
     inkscape:window-x="-8"
     inkscape:window-y="-8"
     inkscape:window-maximized="1"
     inkscape:current-layer="svg4136"
     fit-margin-top="0"
     fit-margin-left="0"
     fit-margin-right="0"
     fit-margin-bottom="0" /><metadata
     id="metadata4142"><rdf:RDF><cc:Work
         rdf:about=""><dc:format>image/svg+xml</dc:format><dc:type
           rdf:resource="http://purl.org/dc/dcmitype/StillImage" /><dc:title></dc:title></cc:Work></rdf:RDF></metadata><defs
     id="defs4140"><clipPath
       id="clipPath4152"
       clipPathUnits="userSpaceOnUse"><path
         id="path4154"
         d="M 0,0 0,325 325,325 325,0 0,0 Z"
         inkscape:connector-curvature="0" /></clipPath></defs><g
     transform="matrix(0.42354478,0,0,-0.42354478,3.7128013,116.55225)"
     id="g4144"
     style="fill:#ad7835;fill-opacity:1"><g
       transform="matrix(0.24,0,0,0.24,46.718081,141.78394)"
       id="g4146"
       style="fill:#ad7835;fill-opacity:1"><g
         id="g4148"
         style="fill:#ad7835;fill-opacity:1"><g
           clip-path="url(#clipPath4152)"
           id="g4150"
           style="fill:#ad7835;fill-opacity:1"><path
             id="path4156"
             style="fill:#ad7835;fill-opacity:1;fill-rule:evenodd;stroke:none"
             d="m 41.668,324.645 241.309,0 c 22.914,0 41.664,-16.957 41.664,-41.665 l 0,-241.3081 c 0,-24.711 -18.75,-41.66799375 -41.664,-41.66799375 l -241.309,0 C 18.75,0.00390625 0,16.9609 0,41.6719 L 0,282.98 c 0,24.708 18.75,41.665 41.668,41.665 z m 194.824,-36.067 c -8.043,0 -14.617,-6.574 -14.617,-14.617 l 0,-34.988 c 0,-8.043 6.574,-14.618 14.617,-14.618 l 36.699,0 c 8.024,0 14.602,6.575 14.602,14.618 l 0,34.988 c 0,8.043 -6.578,14.617 -14.602,14.617 l -36.699,0 z m 51.461,-101.219 -28.578,0 c 2.699,-8.82 4.168,-18.179 4.168,-27.851 0,-54.004 -45.184,-97.7814 -100.914,-97.7814 -55.731,0 -100.9142,43.7774 -100.9142,97.7814 0,9.672 1.4688,19.031 4.168,27.851 l -29.8008,0 0,-137.1442 c 0,-7.0937 5.7969,-12.9062 12.9102,-12.9062 l 226.0588,0 c 7.113,0 12.902,5.8125 12.902,12.9062 l 0,137.1442 z m -125.324,38.848 c -36,0 -65.1993,-28.285 -65.1993,-63.184 0,-34.894 29.1993,-63.1832 65.1993,-63.1832 36.004,0 65.203,28.2892 65.203,63.1832 0,34.899 -29.184,63.184 -65.203,63.184 z"
             inkscape:connector-curvature="0" /></g></g></g></g><rect
     style="fill:#ad7835;fill-opacity:0;stroke:#ad7835;stroke-width:1;stroke-miterlimit:4;stroke-dasharray:none;stroke-opacity:1"
     id="rect4139"
     width="79.395325"
     height="79.395325"
     x="0.30233836"
     y="0.30233836" /></svg>