<?xml version="1.0" encoding="UTF-8" standalone="no"?>
<svg
   xmlns:dc="http://purl.org/dc/elements/1.1/"
   xmlns:cc="http://creativecommons.org/ns#"
   xmlns:rdf="http://www.w3.org/1999/02/22-rdf-syntax-ns#"
   xmlns:svg="http://www.w3.org/2000/svg"
   xmlns="http://www.w3.org/2000/svg"
   xmlns:sodipodi="http://sodipodi.sourceforge.net/DTD/sodipodi-0.dtd"
   xmlns:inkscape="http://www.inkscape.org/namespaces/inkscape"
   viewBox="0 0 80.045415 80.045418"
   height="80.045418"
   width="80.045418"
   xml:space="preserve"
   version="1.1"
   id="svg4166"
   inkscape:version="0.91 r13725"
   sodipodi:docname="pinterest-logo.svg"><sodipodi:namedview
     pagecolor="#ffffff"
     bordercolor="#666666"
     borderopacity="1"
     objecttolerance="10"
     gridtolerance="10"
     guidetolerance="10"
     inkscape:pageopacity="0"
     inkscape:pageshadow="2"
     inkscape:window-width="1366"
     inkscape:window-height="715"
     id="namedview12"
     showgrid="false"
     inkscape:zoom="2.6074925"
     inkscape:cx="-36.511719"
     inkscape:cy="22.545998"
     inkscape:window-x="-8"
     inkscape:window-y="-8"
     inkscape:window-maximized="1"
     inkscape:current-layer="svg4166"
     fit-margin-top="0"
     fit-margin-left="0"
     fit-margin-right="0"
     fit-margin-bottom="0" /><metadata
     id="metadata4172"><rdf:RDF><cc:Work
         rdf:about=""><dc:format>image/svg+xml</dc:format><dc:type
           rdf:resource="http://purl.org/dc/dcmitype/StillImage" /><dc:title></dc:title></cc:Work></rdf:RDF></metadata><defs
     id="defs4170"><clipPath
       id="clipPath4182"
       clipPathUnits="userSpaceOnUse"><path
         id="path4184"
         d="M 0,0 0,54 42,54 42,0 0,0 Z"
         inkscape:connector-curvature="0" /></clipPath></defs><g
     transform="matrix(2.7115862,0,0,-2.7115862,26.522708,57.376619)"
     id="g4174"
     style="fill:#ad7835;fill-opacity:1"><g
       transform="scale(0.24,0.24)"
       id="g4176"
       style="fill:#ad7835;fill-opacity:1"><g
         id="g4178"
         style="fill:#ad7835;fill-opacity:1"><g
           clip-path="url(#clipPath4182)"
           id="g4180"
           style="fill:#ad7835;fill-opacity:1"><path
             id="path4186"
             style="fill:#ad7835;fill-opacity:1;fill-rule:nonzero;stroke:none"
             d="M 41.2422,38.5039 C 39.7969,49.0391 29.2773,54.4102 18.082,53.1523 9.21094,52.1641 0.390625,45 0.015625,34.7461 -0.210938,28.4961 1.5625,23.8086 7.51953,22.4922 10.0898,27.0469 6.6875,28.043 6.15234,31.3477 3.97266,44.8555 21.7305,54.0664 31.0195,44.6406 37.4648,38.1016 33.2227,18.0117 22.8516,20.1133 12.9102,22.1016 27.7148,38.082 19.793,41.2266 13.3477,43.7773 9.91406,33.4297 12.9727,28.2852 11.1836,19.4297 7.32422,11.0977 8.88672,-0.00390625 13.9492,3.67578 15.6602,10.7227 17.0586,18.0625 c 2.5547,-1.5469 3.9219,-3.1602 7.1562,-3.418 11.9844,-0.9101 18.6719,11.9649 17.0274,23.8594 z"
             inkscape:connector-curvature="0" /></g></g></g></g><rect
     style="fill:#ad7835;fill-opacity:0;stroke:#ad7835;stroke-width:1;stroke-miterlimit:4;stroke-dasharray:none;stroke-opacity:1"
     id="rect4139"
     width="79.045418"
     height="79.045418"
     x="0.49999905"
     y="0.5" /></svg>