<?xml version="1.0" encoding="UTF-8" standalone="no"?>
<svg
   xmlns:dc="http://purl.org/dc/elements/1.1/"
   xmlns:cc="http://creativecommons.org/ns#"
   xmlns:rdf="http://www.w3.org/1999/02/22-rdf-syntax-ns#"
   xmlns:svg="http://www.w3.org/2000/svg"
   xmlns="http://www.w3.org/2000/svg"
   xmlns:sodipodi="http://sodipodi.sourceforge.net/DTD/sodipodi-0.dtd"
   xmlns:inkscape="http://www.inkscape.org/namespaces/inkscape"
   viewBox="0 0 79.999995 79.999998"
   height="80"
   width="79.999992"
   xml:space="preserve"
   version="1.1"
   id="svg4196"
   inkscape:version="0.91 r13725"
   sodipodi:docname="twitter-logo.svg"><sodipodi:namedview
     pagecolor="#ffffff"
     bordercolor="#666666"
     borderopacity="1"
     objecttolerance="10"
     gridtolerance="10"
     guidetolerance="10"
     inkscape:pageopacity="0"
     inkscape:pageshadow="2"
     inkscape:window-width="1366"
     inkscape:window-height="715"
     id="namedview12"
     showgrid="false"
     inkscape:zoom="3.2098543"
     inkscape:cx="-13.201502"
     inkscape:cy="15.793383"
     inkscape:window-x="-8"
     inkscape:window-y="-8"
     inkscape:window-maximized="1"
     inkscape:current-layer="svg4196"
     fit-margin-top="0"
     fit-margin-left="0"
     fit-margin-right="0"
     fit-margin-bottom="0" /><metadata
     id="metadata4202"><rdf:RDF><cc:Work
         rdf:about=""><dc:format>image/svg+xml</dc:format><dc:type
           rdf:resource="http://purl.org/dc/dcmitype/StillImage" /><dc:title></dc:title></cc:Work></rdf:RDF></metadata><defs
     id="defs4200"><clipPath
       id="clipPath4212"
       clipPathUnits="userSpaceOnUse"><path
         id="path4214"
         d="M 0,0 0,44 55,44 55,0 0,0 Z"
         inkscape:connector-curvature="0" /></clipPath></defs><g
     transform="matrix(2.5780009,0,0,-2.5780009,23.499998,53.40761)"
     id="g4204"
     style="fill:#ad7835;fill-opacity:1;stroke-width:0.38789746;stroke-miterlimit:4;stroke-dasharray:none"><g
       transform="scale(0.24,0.24)"
       id="g4206"
       style="fill:#ad7835;fill-opacity:1;stroke-width:1.61623942;stroke-miterlimit:4;stroke-dasharray:none"><g
         id="g4208"
         style="fill:#ad7835;fill-opacity:1;stroke-width:1.61623942;stroke-miterlimit:4;stroke-dasharray:none"><g
           clip-path="url(#clipPath4212)"
           id="g4210"
           style="fill:#ad7835;fill-opacity:1;stroke-width:1.61623942;stroke-miterlimit:4;stroke-dasharray:none"><path
             id="path4216"
             style="fill:#ad7835;fill-opacity:1;fill-rule:nonzero;stroke:none;stroke-width:1.61623942;stroke-miterlimit:4;stroke-dasharray:none"
             d="m 53.3359,38.207 c -1.9531,-0.8672 -4.0703,-1.4648 -6.2812,-1.7265 2.2617,1.3515 3.9883,3.5 4.8164,6.0586 -2.1172,-1.2539 -4.457,-2.168 -6.9688,-2.6563 -1.9804,2.1172 -4.832,3.4492 -7.9726,3.4492 -6.0391,0 -10.9375,-4.8984 -10.9375,-10.9375 0,-0.8593 0.0976,-1.6914 0.2773,-2.4922 -9.0976,0.461 -17.15231,4.8047 -22.55856,11.4297 -0.94531,-1.6093 -1.48047,-3.5 -1.48047,-5.5039 0,-3.789 1.9375,-7.1445 4.86719,-9.0937 -1.79297,0.0429 -3.46875,0.5508 -4.94922,1.3672 l 0,-0.1368 c 0,-5.3007 3.77734,-9.7265 8.77346,-10.7382 -0.9141,-0.2422 -1.88674,-0.3711 -2.87893,-0.3711 -0.70313,0 -1.38281,0.0625 -2.06641,0.1914 C 7.375,12.6992 11.4102,9.54688 16.1953,9.44531 12.4492,6.51563 7.73047,4.77344 2.60547,4.77344 1.72656,4.77344 0.863281,4.82422 0,4.92188 4.85156,1.8125 10.5977,0.0078125 16.7773,0.0078125 36.8945,0.0078125 47.8984,16.6758 47.8984,31.125 l -0.0312,1.418 c 2.1484,1.5429 4.0039,3.4648 5.4687,5.664 z"
             inkscape:connector-curvature="0" /></g></g></g></g><rect
     style="fill:#ad7835;fill-opacity:0;stroke:#ad7835;stroke-width:1;stroke-opacity:1;stroke-miterlimit:4;stroke-dasharray:none"
     id="rect3339"
     width="78.573074"
     height="78.573082"
     x="0.7134608"
     y="0.7134608" /></svg>